{
	"asset":{
		"generator":"Khronos glTF Blender I/O v3.5.30",
		"version":"2.0"
	},
	"scene":0,
	"scenes":[
		{
			"name":"Scene",
			"nodes":[
				0
			]
		}
	],
	"nodes":[
		{
			"mesh":0,
			"name":"Arma",
			"rotation":[
				0.7071068286895752,
				0,
				0,
				0.7071068286895752
			]
		}
	],
	"materials":[
		{
			"doubleSided":true,
			"name":"\u6750\u8d28",
			"pbrMetallicRoughness":{
				"baseColorFactor":[
					0.800000011920929,
					0.800000011920929,
					0.800000011920929,
					1
				],
				"metallicFactor":0,
				"roughnessFactor":0.5
			}
		}
	],
	"meshes":[
		{
			"name":"Arma",
			"primitives":[
				{
					"attributes":{
						"POSITION":0,
						"NORMAL":1
					},
					"indices":2,
					"material":0
				}
			]
		}
	],
	"accessors":[
		{
			"bufferView":0,
			"componentType":5126,
			"count":23201,
			"max":[
				0.8385300040245056,
				0.7621999979019165,
				0.999180018901825
			],
			"min":[
				-0.8390700221061707,
				-0.7620999813079834,
				-0.9995499849319458
			],
			"type":"VEC3"
		},
		{
			"bufferView":1,
			"componentType":5126,
			"count":23201,
			"type":"VEC3"
		},
		{
			"bufferView":2,
			"componentType":5123,
			"count":139194,
			"type":"SCALAR"
		}
	],
	"bufferViews":[
		{
			"buffer":0,
			"byteLength":278412,
			"byteOffset":0,
			"target":34962
		},
		{
			"buffer":0,
			"byteLength":278412,
			"byteOffset":278412,
			"target":34962
		},
		{
			"buffer":0,
			"byteLength":278388,
			"byteOffset":556824,
			"target":34963
		}
	],
	"buffers":[
		{
			"byteLength":835212,
			"uri":"data:application/octet-stream;base64,"
		}
	]
}
