{
	"asset":{
		"generator":"Khronos glTF Blender I/O v3.5.30",
		"version":"2.0"
	},
	"scene":0,
	"scenes":[
		{
			"name":"Scene",
			"nodes":[
				0
			]
		}
	],
	"nodes":[
		{
			"mesh":0,
			"name":"bunny",
			"rotation":[
				0.7071068286895752,
				0,
				0,
				0.7071068286895752
			],
			"scale":[
				14.844808578491211,
				14.844808578491211,
				14.844808578491211
			],
			"translation":[
				-0.2058074027299881,
				0.08207416534423828,
				0.10673206299543381
			]
		}
	],
	"materials":[
		{
			"doubleSided":true,
			"name":"\u6750\u8d28.002",
			"pbrMetallicRoughness":{
				"baseColorFactor":[
					0.800000011920929,
					0.800000011920929,
					0.800000011920929,
					1
				],
				"metallicFactor":0,
				"roughnessFactor":0.5
			}
		}
	],
	"meshes":[
		{
			"name":"bunny.001",
			"primitives":[
				{
					"attributes":{
						"POSITION":0,
						"NORMAL":1
					},
					"indices":2,
					"material":0
				}
			]
		}
	],
	"accessors":[
		{
			"bufferView":0,
			"componentType":5126,
			"count":35292,
			"max":[
				0.0819503590464592,
				0.04793952405452728,
				0.053749360144138336
			],
			"min":[
				-0.0737486407160759,
				-0.07273377478122711,
				-0.10024094581604004
			],
			"type":"VEC3"
		},
		{
			"bufferView":1,
			"componentType":5126,
			"count":35292,
			"type":"VEC3"
		},
		{
			"bufferView":2,
			"componentType":5123,
			"count":211740,
			"type":"SCALAR"
		}
	],
	"bufferViews":[
		{
			"buffer":0,
			"byteLength":423504,
			"byteOffset":0,
			"target":34962
		},
		{
			"buffer":0,
			"byteLength":423504,
			"byteOffset":423504,
			"target":34962
		},
		{
			"buffer":0,
			"byteLength":423480,
			"byteOffset":847008,
			"target":34963
		}
	],
	"buffers":[
		{
			"byteLength":1270488,
			"uri":"data:application/octet-stream;base64,"
		}
	]
}
