{
	"asset":{
		"generator":"Khronos glTF Blender I/O v3.5.30",
		"version":"2.0"
	},
	"scene":0,
	"scenes":[
		{
			"name":"Scene",
			"nodes":[
				0
			]
		}
	],
	"nodes":[
		{
			"mesh":0,
			"name":"horse",
			"rotation":[
				0.02832886017858982,
				0,
				0,
				0.9995986819267273
			]
		}
	],
	"materials":[
		{
			"doubleSided":true,
			"name":"\u6750\u8d28.003",
			"pbrMetallicRoughness":{
				"baseColorFactor":[
					0.800000011920929,
					0.800000011920929,
					0.800000011920929,
					1
				],
				"metallicFactor":0,
				"roughnessFactor":0.5
			}
		}
	],
	"meshes":[
		{
			"name":"horse",
			"primitives":[
				{
					"attributes":{
						"POSITION":0,
						"NORMAL":1
					},
					"indices":2,
					"material":0
				}
			]
		}
	],
	"accessors":[
		{
			"bufferView":0,
			"componentType":5126,
			"count":48485,
			"max":[
				0.4581950008869171,
				0.8336160182952881,
				1
			],
			"min":[
				-0.4581950008869171,
				-0.8336160182952881,
				-1
			],
			"type":"VEC3"
		},
		{
			"bufferView":1,
			"componentType":5126,
			"count":48485,
			"type":"VEC3"
		},
		{
			"bufferView":2,
			"componentType":5123,
			"count":290898,
			"type":"SCALAR"
		}
	],
	"bufferViews":[
		{
			"buffer":0,
			"byteLength":581820,
			"byteOffset":0,
			"target":34962
		},
		{
			"buffer":0,
			"byteLength":581820,
			"byteOffset":581820,
			"target":34962
		},
		{
			"buffer":0,
			"byteLength":581796,
			"byteOffset":1163640,
			"target":34963
		}
	],
	"buffers":[
		{
			"byteLength":1745436,
			"uri":"data:application/octet-stream;base64,"
		}
	]
}
