{
	"asset":{
		"generator":"Khronos glTF Blender I/O v3.5.30",
		"version":"2.0"
	},
	"scene":0,
	"scenes":[
		{
			"name":"Scene",
			"nodes":[
				0
			]
		}
	],
	"nodes":[
		{
			"mesh":0,
			"name":"Buddha",
			"rotation":[
				0.7071068286895752,
				0,
				0,
				0.7071068286895752
			],
			"scale":[
				2.64039945602417,
				2.64039945602417,
				2.64039945602417
			]
		}
	],
	"materials":[
		{
			"doubleSided":true,
			"name":"\u6750\u8d28.001",
			"pbrMetallicRoughness":{
				"baseColorFactor":[
					0.800000011920929,
					0.800000011920929,
					0.800000011920929,
					1
				],
				"metallicFactor":0,
				"roughnessFactor":0.5
			}
		}
	],
	"meshes":[
		{
			"name":"Buddha",
			"primitives":[
				{
					"attributes":{
						"POSITION":0,
						"NORMAL":1
					},
					"indices":2,
					"material":0
				}
			]
		}
	],
	"accessors":[
		{
			"bufferView":0,
			"componentType":5126,
			"count":61512,
			"max":[
				0.41056597232818604,
				0.4110032618045807,
				1
			],
			"min":[
				-0.41056597232818604,
				-0.4110032618045807,
				-1
			],
			"type":"VEC3"
		},
		{
			"bufferView":1,
			"componentType":5126,
			"count":61512,
			"type":"VEC3"
		},
		{
			"bufferView":2,
			"componentType":5123,
			"count":369168,
			"type":"SCALAR"
		}
	],
	"bufferViews":[
		{
			"buffer":0,
			"byteLength":738144,
			"byteOffset":0,
			"target":34962
		},
		{
			"buffer":0,
			"byteLength":738144,
			"byteOffset":738144,
			"target":34962
		},
		{
			"buffer":0,
			"byteLength":738336,
			"byteOffset":1476288,
			"target":34963
		}
	],
	"buffers":[
		{
			"byteLength":2214624,
			"uri":"data:application/octet-stream;base64,"
		}
	]
}
