{
	"asset":{
		"generator":"Khronos glTF Blender I/O v3.5.30",
		"version":"2.0"
	},
	"extensionsUsed":[
		"KHR_materials_emissive_strength"
	],
	"scene":0,
	"scenes":[
		{
			"name":"Scene",
			"nodes":[
				0,
				1,
				2,
				3,
				4,
				5,
				6,
				7,
				8
			]
		}
	],
	"nodes":[
		{
			"mesh":0,
			"name":"scene",
			"rotation":[
				0.11748423427343369,
				0,
				0,
				0.9930747747421265
			],
			"scale":[
				0.8235135078430176,
				0.8235134482383728,
				0.8235134482383728
			]
		},
		{
			"mesh":1,
			"name":"scene.001",
			"rotation":[
				0.11748423427343369,
				0,
				0,
				0.9930747747421265
			],
			"scale":[
				0.8235135078430176,
				0.8235134482383728,
				0.8235134482383728
			]
		},
		{
			"mesh":2,
			"name":"scene.002",
			"rotation":[
				0.11748423427343369,
				0,
				0,
				0.9930747747421265
			],
			"scale":[
				0.8235135078430176,
				0.8235134482383728,
				0.8235134482383728
			]
		},
		{
			"mesh":3,
			"name":"scene.003",
			"rotation":[
				0.11748423427343369,
				0,
				0,
				0.9930747747421265
			],
			"scale":[
				0.8235135078430176,
				0.8235134482383728,
				0.8235134482383728
			]
		},
		{
			"mesh":4,
			"name":"scene.004",
			"rotation":[
				0.11748423427343369,
				0,
				0,
				0.9930747747421265
			],
			"scale":[
				0.8235135078430176,
				0.8235134482383728,
				0.8235134482383728
			]
		},
		{
			"mesh":5,
			"name":"scene.005",
			"rotation":[
				0.11748423427343369,
				0,
				0,
				0.9930747747421265
			],
			"scale":[
				0.8235135078430176,
				0.8235134482383728,
				0.8235134482383728
			]
		},
		{
			"mesh":6,
			"name":"scene.006",
			"rotation":[
				0.11748423427343369,
				0,
				0,
				0.9930747747421265
			],
			"scale":[
				0.8235135078430176,
				0.8235134482383728,
				0.8235134482383728
			]
		},
		{
			"mesh":7,
			"name":"scene.007",
			"rotation":[
				0.11748423427343369,
				0,
				0,
				0.9930747747421265
			],
			"scale":[
				0.8235135078430176,
				0.8235134482383728,
				0.8235134482383728
			]
		},
		{
			"mesh":8,
			"name":"scene.008",
			"rotation":[
				0.11748423427343369,
				0,
				0,
				0.9930747747421265
			],
			"scale":[
				0.8235135078430176,
				0.8235134482383728,
				0.8235134482383728
			]
		}
	],
	"materials":[
		{
			"doubleSided":true,
			"name":"sphere",
			"pbrMetallicRoughness":{
				"baseColorFactor":[
					0.12488699704408646,
					0.800000011920929,
					0.01857299916446209,
					1
				],
				"metallicFactor":0,
				"roughnessFactor":0.5
			}
		},
		{
			"doubleSided":true,
			"name":"right",
			"pbrMetallicRoughness":{
				"baseColorFactor":[
					0.800000011920929,
					0.02216400019824505,
					0.012539999559521675,
					1
				],
				"metallicFactor":0,
				"roughnessFactor":0.5
			}
		},
		{
			"doubleSided":true,
			"emissiveFactor":[
				1,
				1,
				1
			],
			"extensions":{
				"KHR_materials_emissive_strength":{
					"emissiveStrength":10
				}
			},
			"name":"light",
			"pbrMetallicRoughness":{
				"baseColorFactor":[
					0.800000011920929,
					0.26491400599479675,
					0.0763780027627945,
					1
				],
				"metallicFactor":0,
				"roughnessFactor":0.5
			}
		},
		{
			"doubleSided":true,
			"name":"back",
			"pbrMetallicRoughness":{
				"baseColorFactor":[
					0.8000000715255737,
					0.0016697905957698822,
					0.5283985733985901,
					1
				],
				"metallicFactor":0,
				"roughnessFactor":0.5
			}
		},
		{
			"doubleSided":true,
			"name":"left",
			"pbrMetallicRoughness":{
				"baseColorFactor":[
					0.02911599911749363,
					0.10620799660682678,
					0.800000011920929,
					1
				],
				"metallicFactor":0,
				"roughnessFactor":0.5
			}
		},
		{
			"doubleSided":true,
			"name":"top",
			"pbrMetallicRoughness":{
				"baseColorFactor":[
					0.0033541119191795588,
					0.8000000715255737,
					0.16795451939105988,
					1
				],
				"metallicFactor":0,
				"roughnessFactor":0.5
			}
		},
		{
			"doubleSided":true,
			"name":"down",
			"pbrMetallicRoughness":{
				"baseColorFactor":[
					1,
					0.8859453797340393,
					0.004169142339378595,
					1
				],
				"metallicFactor":0,
				"roughnessFactor":0.5
			}
		},
		{
			"doubleSided":true,
			"name":"small",
			"pbrMetallicRoughness":{
				"baseColorFactor":[
					0.800000011920929,
					0.800000011920929,
					0.800000011920929,
					1
				],
				"metallicFactor":0,
				"roughnessFactor":0.5
			}
		},
		{
			"doubleSided":true,
			"name":"big",
			"pbrMetallicRoughness":{
				"baseColorFactor":[
					0.800000011920929,
					0.800000011920929,
					0.800000011920929,
					1
				],
				"metallicFactor":0,
				"roughnessFactor":0.5
			}
		}
	],
	"meshes":[
		{
			"name":"girl.004",
			"primitives":[
				{
					"attributes":{
						"POSITION":0,
						"TEXCOORD_0":1,
						"NORMAL":2
					},
					"indices":3,
					"material":0
				}
			]
		},
		{
			"name":"girl.010",
			"primitives":[
				{
					"attributes":{
						"POSITION":4,
						"TEXCOORD_0":5,
						"NORMAL":6
					},
					"indices":7,
					"material":1
				}
			]
		},
		{
			"name":"girl.011",
			"primitives":[
				{
					"attributes":{
						"POSITION":8,
						"TEXCOORD_0":9,
						"NORMAL":10
					},
					"indices":11,
					"material":2
				}
			]
		},
		{
			"name":"girl.012",
			"primitives":[
				{
					"attributes":{
						"POSITION":12,
						"TEXCOORD_0":13,
						"NORMAL":14
					},
					"indices":11,
					"material":3
				}
			]
		},
		{
			"name":"girl.013",
			"primitives":[
				{
					"attributes":{
						"POSITION":15,
						"TEXCOORD_0":16,
						"NORMAL":17
					},
					"indices":7,
					"material":4
				}
			]
		},
		{
			"name":"girl.014",
			"primitives":[
				{
					"attributes":{
						"POSITION":18,
						"TEXCOORD_0":19,
						"NORMAL":20
					},
					"indices":21,
					"material":5
				}
			]
		},
		{
			"name":"girl.015",
			"primitives":[
				{
					"attributes":{
						"POSITION":22,
						"TEXCOORD_0":23,
						"NORMAL":24
					},
					"indices":21,
					"material":6
				}
			]
		},
		{
			"name":"girl.016",
			"primitives":[
				{
					"attributes":{
						"POSITION":25,
						"TEXCOORD_0":26,
						"NORMAL":27
					},
					"indices":11,
					"material":7
				}
			]
		},
		{
			"name":"girl.017",
			"primitives":[
				{
					"attributes":{
						"POSITION":28,
						"TEXCOORD_0":29,
						"NORMAL":30
					},
					"indices":11,
					"material":8
				}
			]
		}
	],
	"accessors":[
		{
			"bufferView":0,
			"componentType":5126,
			"count":660,
			"max":[
				2.1961276531219482,
				0.8102659583091736,
				-0.9417639374732971
			],
			"min":[
				0.6377819180488586,
				-0.7480799555778503,
				-2.504851818084717
			],
			"type":"VEC3"
		},
		{
			"bufferView":1,
			"componentType":5126,
			"count":660,
			"type":"VEC2"
		},
		{
			"bufferView":2,
			"componentType":5126,
			"count":660,
			"type":"VEC3"
		},
		{
			"bufferView":3,
			"componentType":5123,
			"count":3648,
			"type":"SCALAR"
		},
		{
			"bufferView":4,
			"componentType":5126,
			"count":24,
			"max":[
				3.177145004272461,
				3.420238971710205,
				1.6615170240402222
			],
			"min":[
				2.7135510444641113,
				-3.482266902923584,
				-5.2359161376953125
			],
			"type":"VEC3"
		},
		{
			"bufferView":5,
			"componentType":5126,
			"count":24,
			"type":"VEC2"
		},
		{
			"bufferView":6,
			"componentType":5126,
			"count":24,
			"type":"VEC3"
		},
		{
			"bufferView":7,
			"componentType":5123,
			"count":36,
			"type":"SCALAR"
		},
		{
			"bufferView":8,
			"componentType":5126,
			"count":24,
			"max":[
				0.4654599726200104,
				1.5674078464508057,
				-4.997868537902832
			],
			"min":[
				-1.572166919708252,
				-0.4702179729938507,
				-5.115996360778809
			],
			"type":"VEC3"
		},
		{
			"bufferView":9,
			"componentType":5126,
			"count":24,
			"type":"VEC2"
		},
		{
			"bufferView":10,
			"componentType":5126,
			"count":24,
			"type":"VEC3"
		},
		{
			"bufferView":11,
			"componentType":5123,
			"count":36,
			"type":"SCALAR"
		},
		{
			"bufferView":12,
			"componentType":5126,
			"count":24,
			"max":[
				2.972632646560669,
				-3.153517723083496,
				1.6615169048309326
			],
			"min":[
				-3.929872751235962,
				-3.617112874984741,
				-5.235915660858154
			],
			"type":"VEC3"
		},
		{
			"bufferView":13,
			"componentType":5126,
			"count":24,
			"type":"VEC2"
		},
		{
			"bufferView":14,
			"componentType":5126,
			"count":24,
			"type":"VEC3"
		},
		{
			"bufferView":15,
			"componentType":5126,
			"count":24,
			"max":[
				-3.702692747116089,
				3.289541721343994,
				1.6615169048309326
			],
			"min":[
				-4.166286468505859,
				-3.6129648685455322,
				-5.235915660858154
			],
			"type":"VEC3"
		},
		{
			"bufferView":16,
			"componentType":5126,
			"count":24,
			"type":"VEC2"
		},
		{
			"bufferView":17,
			"componentType":5126,
			"count":24,
			"type":"VEC3"
		},
		{
			"bufferView":18,
			"componentType":5126,
			"count":24,
			"max":[
				3.0090177059173584,
				3.5227386951446533,
				-5.077164649963379
			],
			"min":[
				-4.018177509307861,
				-3.5044567584991455,
				-5.409811496734619
			],
			"type":"VEC3"
		},
		{
			"bufferView":19,
			"componentType":5126,
			"count":24,
			"type":"VEC2"
		},
		{
			"bufferView":20,
			"componentType":5126,
			"count":24,
			"type":"VEC3"
		},
		{
			"bufferView":21,
			"componentType":5123,
			"count":36,
			"type":"SCALAR"
		},
		{
			"bufferView":22,
			"componentType":5126,
			"count":24,
			"max":[
				3.0090177059173584,
				3.5227386951446533,
				1.6962459087371826
			],
			"min":[
				-4.018177509307861,
				-3.5044567584991455,
				1.3635978698730469
			],
			"type":"VEC3"
		},
		{
			"bufferView":23,
			"componentType":5126,
			"count":24,
			"type":"VEC2"
		},
		{
			"bufferView":24,
			"componentType":5126,
			"count":24,
			"type":"VEC3"
		},
		{
			"bufferView":25,
			"componentType":5126,
			"count":24,
			"max":[
				2.191037654876709,
				2.067251682281494,
				0.5725489258766174
			],
			"min":[
				0.5966929197311401,
				0.4729059636592865,
				-0.5725489258766174
			],
			"type":"VEC3"
		},
		{
			"bufferView":26,
			"componentType":5126,
			"count":24,
			"type":"VEC2"
		},
		{
			"bufferView":27,
			"componentType":5126,
			"count":24,
			"type":"VEC3"
		},
		{
			"bufferView":28,
			"componentType":5126,
			"count":24,
			"max":[
				1.289374828338623,
				-1.1224578619003296,
				1.3975238800048828
			],
			"min":[
				-0.30497097969055176,
				-2.716803789138794,
				-2.8436317443847656
			],
			"type":"VEC3"
		},
		{
			"bufferView":29,
			"componentType":5126,
			"count":24,
			"type":"VEC2"
		},
		{
			"bufferView":30,
			"componentType":5126,
			"count":24,
			"type":"VEC3"
		}
	],
	"bufferViews":[
		{
			"buffer":0,
			"byteLength":7920,
			"byteOffset":0,
			"target":34962
		},
		{
			"buffer":0,
			"byteLength":5280,
			"byteOffset":7920,
			"target":34962
		},
		{
			"buffer":0,
			"byteLength":7920,
			"byteOffset":13200,
			"target":34962
		},
		{
			"buffer":0,
			"byteLength":7296,
			"byteOffset":21120,
			"target":34963
		},
		{
			"buffer":0,
			"byteLength":288,
			"byteOffset":28416,
			"target":34962
		},
		{
			"buffer":0,
			"byteLength":192,
			"byteOffset":28704,
			"target":34962
		},
		{
			"buffer":0,
			"byteLength":288,
			"byteOffset":28896,
			"target":34962
		},
		{
			"buffer":0,
			"byteLength":72,
			"byteOffset":29184,
			"target":34963
		},
		{
			"buffer":0,
			"byteLength":288,
			"byteOffset":29256,
			"target":34962
		},
		{
			"buffer":0,
			"byteLength":192,
			"byteOffset":29544,
			"target":34962
		},
		{
			"buffer":0,
			"byteLength":288,
			"byteOffset":29736,
			"target":34962
		},
		{
			"buffer":0,
			"byteLength":72,
			"byteOffset":30024,
			"target":34963
		},
		{
			"buffer":0,
			"byteLength":288,
			"byteOffset":30096,
			"target":34962
		},
		{
			"buffer":0,
			"byteLength":192,
			"byteOffset":30384,
			"target":34962
		},
		{
			"buffer":0,
			"byteLength":288,
			"byteOffset":30576,
			"target":34962
		},
		{
			"buffer":0,
			"byteLength":288,
			"byteOffset":30864,
			"target":34962
		},
		{
			"buffer":0,
			"byteLength":192,
			"byteOffset":31152,
			"target":34962
		},
		{
			"buffer":0,
			"byteLength":288,
			"byteOffset":31344,
			"target":34962
		},
		{
			"buffer":0,
			"byteLength":288,
			"byteOffset":31632,
			"target":34962
		},
		{
			"buffer":0,
			"byteLength":192,
			"byteOffset":31920,
			"target":34962
		},
		{
			"buffer":0,
			"byteLength":288,
			"byteOffset":32112,
			"target":34962
		},
		{
			"buffer":0,
			"byteLength":72,
			"byteOffset":32400,
			"target":34963
		},
		{
			"buffer":0,
			"byteLength":288,
			"byteOffset":32472,
			"target":34962
		},
		{
			"buffer":0,
			"byteLength":192,
			"byteOffset":32760,
			"target":34962
		},
		{
			"buffer":0,
			"byteLength":288,
			"byteOffset":32952,
			"target":34962
		},
		{
			"buffer":0,
			"byteLength":288,
			"byteOffset":33240,
			"target":34962
		},
		{
			"buffer":0,
			"byteLength":192,
			"byteOffset":33528,
			"target":34962
		},
		{
			"buffer":0,
			"byteLength":288,
			"byteOffset":33720,
			"target":34962
		},
		{
			"buffer":0,
			"byteLength":288,
			"byteOffset":34008,
			"target":34962
		},
		{
			"buffer":0,
			"byteLength":192,
			"byteOffset":34296,
			"target":34962
		},
		{
			"buffer":0,
			"byteLength":288,
			"byteOffset":34488,
			"target":34962
		}
	],
	"buffers":[
		{
			"byteLength":34776,
			"uri":"data:application/octet-stream;base64,"
		}
	]
}
