# Blender 3.5.0
# www.blender.org
mtllib mocheng.mtl
g Cube_Cube
v 0.542038 1.000000 -1.291120
v 0.542038 -1.000000 -1.291120
v -1.156514 1.000000 -0.235222
v -1.156514 -1.000000 -0.235222
v -0.513860 1.000000 -2.989672
v -0.513860 -1.000000 -2.989672
v -2.212412 1.000000 -1.933774
v -2.212412 -1.000000 -1.933774
vn -0.0000 1.0000 -0.0000
vn -0.8493 -0.0000 0.5279
vn -0.5279 -0.0000 -0.8493
vn -0.0000 -1.0000 -0.0000
vn 0.5279 -0.0000 0.8493
vn 0.8493 -0.0000 -0.5279
vt 0.625000 0.500000
vt 0.375000 0.500000
vt 0.625000 0.750000
vt 0.375000 0.750000
vt 0.875000 0.500000
vt 0.625000 0.250000
vt 0.125000 0.500000
vt 0.375000 0.250000
vt 0.875000 0.750000
vt 0.625000 1.000000
vt 0.625000 0.000000
vt 0.375000 1.000000
vt 0.375000 0.000000
vt 0.125000 0.750000
s 0
usemtl Material
f 1/1/1 5/5/1 7/9/1 3/3/1
f 4/4/2 3/3/2 7/10/2 8/12/2
f 8/13/3 7/11/3 5/6/3 6/8/3
f 6/7/4 2/2/4 4/4/4 8/14/4
f 2/2/5 1/1/5 3/3/5 4/4/5
f 6/8/6 5/6/6 1/1/6 2/2/6
g longcube_longcube
v 2.676322 4.148951 -0.216309
v 2.676322 -0.941119 -0.216309
v 1.088102 4.148951 -1.431857
v 1.088102 -0.941119 -1.431857
v 3.891870 4.148951 -1.804529
v 3.891870 -0.941119 -1.804529
v 2.303649 4.148951 -3.020077
v 2.303649 -0.941119 -3.020077
vn -0.0000 1.0000 -0.0000
vn -0.7941 -0.0000 -0.6078
vn 0.6078 -0.0000 -0.7941
vn -0.0000 -1.0000 -0.0000
vn -0.6078 -0.0000 0.7941
vn 0.7941 -0.0000 0.6078
vt 0.625000 0.500000
vt 0.375000 0.500000
vt 0.625000 0.750000
vt 0.375000 0.750000
vt 0.875000 0.500000
vt 0.625000 0.250000
vt 0.125000 0.500000
vt 0.375000 0.250000
vt 0.875000 0.750000
vt 0.625000 1.000000
vt 0.625000 0.000000
vt 0.375000 1.000000
vt 0.375000 0.000000
vt 0.125000 0.750000
s 0
usemtl Material
f 9/15/7 13/19/7 15/23/7 11/17/7
f 12/18/8 11/17/8 15/24/8 16/26/8
f 16/27/9 15/25/9 13/20/9 14/22/9
f 14/21/10 10/16/10 12/18/10 16/28/10
f 10/16/11 9/15/11 11/17/11 12/18/11
f 14/22/12 13/20/12 9/15/12 10/16/12
g light_light
v 0.718972 5.715630 -0.615131
v 0.718972 5.423406 -0.615131
v -1.281025 5.715630 -0.611675
v -1.281025 5.423406 -0.611675
v 0.715516 5.715630 -2.615128
v 0.715516 5.423406 -2.615128
v -1.284481 5.715630 -2.611672
v -1.284481 5.423406 -2.611672
vn -0.0000 1.0000 -0.0000
vn -1.0000 -0.0000 0.0017
vn -0.0017 -0.0000 -1.0000
vn -0.0000 -1.0000 -0.0000
vn 0.0017 -0.0000 1.0000
vn 1.0000 -0.0000 -0.0017
vt 0.625000 0.500000
vt 0.375000 0.500000
vt 0.625000 0.750000
vt 0.375000 0.750000
vt 0.875000 0.500000
vt 0.625000 0.250000
vt 0.125000 0.500000
vt 0.375000 0.250000
vt 0.875000 0.750000
vt 0.625000 1.000000
vt 0.625000 0.000000
vt 0.375000 1.000000
vt 0.375000 0.000000
vt 0.125000 0.750000
s 0
usemtl light_material
f 17/29/13 21/33/13 23/37/13 19/31/13
f 20/32/14 19/31/14 23/38/14 24/40/14
f 24/41/15 23/39/15 21/34/15 22/36/15
f 22/35/16 18/30/16 20/32/16 24/42/16
f 18/30/17 17/29/17 19/31/17 20/32/17
f 22/36/18 21/34/18 17/29/18 18/30/18
g behind_behind
v 4.839824 5.955543 -3.774502
v 4.839824 -2.380661 -3.774502
v -4.139091 5.955543 -3.758986
v -4.139091 -2.380661 -3.758986
v 4.838669 5.955543 -4.442841
v 4.838669 -2.380661 -4.442841
v -4.140245 5.955543 -4.427325
v -4.140245 -2.380661 -4.427325
vn -0.0000 1.0000 -0.0000
vn -1.0000 -0.0000 0.0017
vn -0.0017 -0.0000 -1.0000
vn -0.0000 -1.0000 -0.0000
vn 0.0017 -0.0000 1.0000
vn 1.0000 -0.0000 -0.0017
vt 0.625000 0.500000
vt 0.375000 0.500000
vt 0.625000 0.750000
vt 0.375000 0.750000
vt 0.875000 0.500000
vt 0.625000 0.250000
vt 0.125000 0.500000
vt 0.375000 0.250000
vt 0.875000 0.750000
vt 0.625000 1.000000
vt 0.625000 0.000000
vt 0.375000 1.000000
vt 0.375000 0.000000
vt 0.125000 0.750000
s 0
usemtl Material
f 25/43/19 29/47/19 31/51/19 27/45/19
f 28/46/20 27/45/20 31/52/20 32/54/20
f 32/55/21 31/53/21 29/48/21 30/50/21
f 30/49/22 26/44/22 28/46/22 32/56/22
f 26/44/23 25/43/23 27/45/23 28/46/23
f 30/50/24 29/48/24 25/43/24 26/44/24
g top_top
v 4.853194 5.694965 3.962716
v 4.838789 5.694965 -4.373475
v -4.125720 5.694965 3.978231
v -4.140125 5.694965 -4.357960
v 4.853194 6.363306 3.962716
v 4.838789 6.363306 -4.373475
v -4.125720 6.363305 3.978231
v -4.140125 6.363305 -4.357960
vn 0.0017 -0.0000 1.0000
vn -1.0000 -0.0000 0.0017
vn -0.0000 1.0000 -0.0000
vn -0.0017 -0.0000 -1.0000
vn -0.0000 -1.0000 -0.0000
vn 1.0000 -0.0000 -0.0017
vt 0.625000 0.500000
vt 0.375000 0.500000
vt 0.625000 0.750000
vt 0.375000 0.750000
vt 0.875000 0.500000
vt 0.625000 0.250000
vt 0.125000 0.500000
vt 0.375000 0.250000
vt 0.875000 0.750000
vt 0.625000 1.000000
vt 0.625000 0.000000
vt 0.375000 1.000000
vt 0.375000 0.000000
vt 0.125000 0.750000
s 0
usemtl Material
f 33/57/25 37/61/25 39/65/25 35/59/25
f 36/60/26 35/59/26 39/66/26 40/68/26
f 40/69/27 39/67/27 37/62/27 38/64/27
f 38/63/28 34/58/28 36/60/28 40/70/28
f 34/58/29 33/57/29 35/59/29 36/60/29
f 38/64/30 37/62/30 33/57/30 34/58/30
g right_right
v 4.838633 6.240880 -4.694838
v 4.838633 -2.095324 -4.694838
v 4.854148 6.240880 4.284077
v 4.854148 -2.095324 4.284077
v 4.170294 6.240880 -4.693683
v 4.170294 -2.095324 -4.693683
v 4.185809 6.240880 4.285232
v 4.185809 -2.095324 4.285232
vn -0.0000 1.0000 -0.0000
vn 0.0017 -0.0000 1.0000
vn -1.0000 -0.0000 0.0017
vn -0.0000 -1.0000 -0.0000
vn 1.0000 -0.0000 -0.0017
vn -0.0017 -0.0000 -1.0000
vt 0.625000 0.500000
vt 0.375000 0.500000
vt 0.625000 0.750000
vt 0.375000 0.750000
vt 0.875000 0.500000
vt 0.625000 0.250000
vt 0.125000 0.500000
vt 0.375000 0.250000
vt 0.875000 0.750000
vt 0.625000 1.000000
vt 0.625000 0.000000
vt 0.375000 1.000000
vt 0.375000 0.000000
vt 0.125000 0.750000
s 0
usemtl Material_green
f 41/71/31 45/75/31 47/79/31 43/73/31
f 44/74/32 43/73/32 47/80/32 48/82/32
f 48/83/33 47/81/33 45/76/33 46/78/33
f 46/77/34 42/72/34 44/74/34 48/84/34
f 42/72/35 41/71/35 43/73/35 44/74/35
f 46/78/36 45/76/36 41/71/36 42/72/36
g left_left
v -3.500413 6.240880 -4.680428
v -3.500413 -2.095324 -4.680428
v -3.484897 6.240880 4.298487
v -3.484897 -2.095324 4.298487
v -4.168752 6.240880 -4.679273
v -4.168752 -2.095324 -4.679273
v -4.153236 6.240880 4.299642
v -4.153236 -2.095324 4.299642
vn -0.0000 1.0000 -0.0000
vn 0.0017 -0.0000 1.0000
vn -1.0000 -0.0000 0.0017
vn -0.0000 -1.0000 -0.0000
vn 1.0000 -0.0000 -0.0017
vn -0.0017 -0.0000 -1.0000
vt 0.625000 0.500000
vt 0.375000 0.500000
vt 0.625000 0.750000
vt 0.375000 0.750000
vt 0.875000 0.500000
vt 0.625000 0.250000
vt 0.125000 0.500000
vt 0.375000 0.250000
vt 0.875000 0.750000
vt 0.625000 1.000000
vt 0.625000 0.000000
vt 0.375000 1.000000
vt 0.375000 0.000000
vt 0.125000 0.750000
s 0
usemtl Material_red
f 49/85/37 53/89/37 55/93/37 51/87/37
f 52/88/38 51/87/38 55/94/38 56/96/38
f 56/97/39 55/95/39 53/90/39 54/92/39
f 54/91/40 50/86/40 52/88/40 56/98/40
f 50/86/41 49/85/41 51/87/41 52/88/41
f 54/92/42 53/90/42 49/85/42 50/86/42
g bottom_bottom
v 4.853089 -2.389992 3.901795
v 4.838684 -2.389992 -4.434397
v -4.125825 -2.389992 3.917310
v -4.140231 -2.389992 -4.418881
v 4.853089 -1.721652 3.901795
v 4.838684 -1.721652 -4.434397
v -4.125825 -1.721653 3.917310
v -4.140231 -1.721653 -4.418881
vn 0.0017 -0.0000 1.0000
vn -1.0000 -0.0000 0.0017
vn -0.0000 1.0000 -0.0000
vn -0.0017 -0.0000 -1.0000
vn -0.0000 -1.0000 -0.0000
vn 1.0000 -0.0000 -0.0017
vt 0.625000 0.500000
vt 0.375000 0.500000
vt 0.625000 0.750000
vt 0.375000 0.750000
vt 0.875000 0.500000
vt 0.625000 0.250000
vt 0.125000 0.500000
vt 0.375000 0.250000
vt 0.875000 0.750000
vt 0.625000 1.000000
vt 0.625000 0.000000
vt 0.375000 1.000000
vt 0.375000 0.000000
vt 0.125000 0.750000
s 0
usemtl Material
f 57/99/43 61/103/43 63/107/43 59/101/43
f 60/102/44 59/101/44 63/108/44 64/110/44
f 64/111/45 63/109/45 61/104/45 62/106/45
f 62/105/46 58/100/46 60/102/46 64/112/46
f 58/100/47 57/99/47 59/101/47 60/102/47
f 62/106/48 61/104/48 57/99/48 58/100/48
