{
	"asset":{
		"generator":"Khronos glTF Blender I/O v3.5.30",
		"version":"2.0"
	},
	"extensionsUsed":[
		"KHR_texture_transform",
		"KHR_materials_emissive_strength"
	],
	"extensionsRequired":[
		"KHR_texture_transform"
	],
	"scene":0,
	"scenes":[
		{
			"name":"Scene",
			"nodes":[
				0,
				1,
				2,
				3,
				4
			]
		}
	],
	"nodes":[
		{
			"mesh":0,
			"name":"Cylinder.004",
			"scale":[
				1.5783240795135498,
				6.36417818069458,
				1.5783240795135498
			],
			"translation":[
				14.520692825317383,
				-0.2838897705078125,
				-41.66161346435547
			]
		},
		{
			"mesh":0,
			"name":"Cylinder.005",
			"scale":[
				1.5783240795135498,
				6.36417818069458,
				1.5783240795135498
			],
			"translation":[
				-19.54570198059082,
				-0.2838897705078125,
				-41.66161346435547
			]
		},
		{
			"mesh":1,
			"name":"Cube.005",
			"scale":[
				0.47667646408081055,
				0.47667646408081055,
				0.47667646408081055
			],
			"translation":[
				12.563607215881348,
				12.068435668945312,
				-12.179008483886719
			]
		},
		{
			"mesh":1,
			"name":"Cube.006",
			"scale":[
				0.47667646408081055,
				0.47667646408081055,
				0.47667646408081055
			],
			"translation":[
				0.6276702880859375,
				12.068435668945312,
				-12.179008483886719
			]
		},
		{
			"mesh":2,
			"name":"Plane.005",
			"rotation":[
				0.7071068286895752,
				0,
				0,
				0.7071068286895752
			],
			"scale":[
				1.7914057970046997,
				1.7914057970046997,
				1.7914057970046997
			],
			"translation":[
				14.499756813049316,
				7.3211212158203125,
				-14.946968078613281
			]
		}
	],
	"materials":[
		{
			"doubleSided":true,
			"name":"concrete.006",
			"normalTexture":{
				"extensions":{
					"KHR_texture_transform":{
						"offset":[
							0,
							0.7300000190734863
						],
						"scale":[
							0.26999998092651367,
							0.26999998092651367
						]
					}
				},
				"index":0
			},
			"pbrMetallicRoughness":{
				"baseColorTexture":{
					"extensions":{
						"KHR_texture_transform":{
							"offset":[
								0,
								0.7300000190734863
							],
							"scale":[
								0.26999998092651367,
								0.26999998092651367
							]
						}
					},
					"index":1
				},
				"metallicFactor":0,
				"metallicRoughnessTexture":{
					"extensions":{
						"KHR_texture_transform":{
							"offset":[
								0,
								0.7300000190734863
							],
							"scale":[
								0.26999998092651367,
								0.26999998092651367
							]
						}
					},
					"index":2
				}
			}
		},
		{
			"doubleSided":true,
			"name":"concrete",
			"normalTexture":{
				"extensions":{
					"KHR_texture_transform":{
						"offset":[
							0,
							0.48000001907348633
						],
						"scale":[
							0.5199999809265137,
							0.5199999809265137
						]
					}
				},
				"index":3
			},
			"pbrMetallicRoughness":{
				"baseColorTexture":{
					"extensions":{
						"KHR_texture_transform":{
							"offset":[
								0,
								0.48000001907348633
							],
							"scale":[
								0.5199999809265137,
								0.5199999809265137
							]
						}
					},
					"index":4
				},
				"metallicFactor":0,
				"metallicRoughnessTexture":{
					"extensions":{
						"KHR_texture_transform":{
							"offset":[
								0,
								0.48000001907348633
							],
							"scale":[
								0.5199999809265137,
								0.5199999809265137
							]
						}
					},
					"index":5
				}
			}
		},
		{
			"doubleSided":true,
			"emissiveFactor":[
				0.057395242154598236,
				1,
				0.27476972341537476
			],
			"extensions":{
				"KHR_materials_emissive_strength":{
					"emissiveStrength":99
				}
			},
			"name":"\u6750\u8d28",
			"pbrMetallicRoughness":{
				"baseColorFactor":[
					0.800000011920929,
					0.800000011920929,
					0.800000011920929,
					1
				],
				"metallicFactor":0,
				"roughnessFactor":0.5
			}
		},
		{
			"alphaMode":"BLEND",
			"doubleSided":true,
			"name":"evx_QD_mat_AKOXW",
			"pbrMetallicRoughness":{}
		}
	],
	"meshes":[
		{
			"name":"Cylinder",
			"primitives":[
				{
					"attributes":{
						"POSITION":0,
						"TEXCOORD_0":1,
						"NORMAL":2
					},
					"indices":3,
					"material":0
				},
				{
					"attributes":{
						"POSITION":4,
						"TEXCOORD_0":5,
						"NORMAL":6
					},
					"indices":7,
					"material":1
				}
			]
		},
		{
			"name":"Cube.001",
			"primitives":[
				{
					"attributes":{
						"POSITION":8,
						"TEXCOORD_0":9,
						"NORMAL":10
					},
					"indices":11,
					"material":2
				}
			]
		},
		{
			"name":"Plane.009",
			"primitives":[
				{
					"attributes":{
						"POSITION":12,
						"TEXCOORD_0":13,
						"NORMAL":14
					},
					"indices":15,
					"material":3
				}
			]
		}
	],
	"textures":[
		{
			"sampler":0,
			"source":0
		},
		{
			"sampler":0,
			"source":0
		},
		{
			"sampler":0,
			"source":1
		},
		{
			"sampler":0,
			"source":0
		},
		{
			"sampler":0,
			"source":0
		},
		{
			"sampler":0,
			"source":1
		}
	],
	"images":[
		{
			"bufferView":4,
			"mimeType":"image/jpeg",
			"name":"TexturesCom_ConcreteBare0451_2_seamless_S"
		},
		{
			"bufferView":5,
			"mimeType":"image/png",
			"name":"TexturesCom_ConcreteBare0451_2_seamless_S"
		}
	],
	"accessors":[
		{
			"bufferView":0,
			"componentType":5126,
			"count":130,
			"max":[
				0.9999980926513672,
				2,
				0.9999961853027344
			],
			"min":[
				-1.0000019073486328,
				-5.960464477539063e-08,
				-1.0000038146972656
			],
			"type":"VEC3"
		},
		{
			"bufferView":1,
			"componentType":5126,
			"count":130,
			"type":"VEC2"
		},
		{
			"bufferView":2,
			"componentType":5126,
			"count":130,
			"type":"VEC3"
		},
		{
			"bufferView":3,
			"componentType":5123,
			"count":372,
			"type":"SCALAR"
		},
		{
			"bufferView":6,
			"componentType":5126,
			"count":66,
			"max":[
				0.9999980926513672,
				1.194953441619873,
				0.9999961853027344
			],
			"min":[
				-1.0000019073486328,
				-5.960464477539063e-08,
				-1.0000038146972656
			],
			"type":"VEC3"
		},
		{
			"bufferView":7,
			"componentType":5126,
			"count":66,
			"type":"VEC2"
		},
		{
			"bufferView":8,
			"componentType":5126,
			"count":66,
			"type":"VEC3"
		},
		{
			"bufferView":9,
			"componentType":5123,
			"count":192,
			"type":"SCALAR"
		},
		{
			"bufferView":10,
			"componentType":5126,
			"count":76,
			"max":[
				0.5668282508850098,
				-0.6022630929946899,
				6.574751377105713
			],
			"min":[
				-6.219405174255371,
				-0.820431649684906,
				6.033226490020752
			],
			"type":"VEC3"
		},
		{
			"bufferView":11,
			"componentType":5126,
			"count":76,
			"type":"VEC2"
		},
		{
			"bufferView":12,
			"componentType":5126,
			"count":76,
			"type":"VEC3"
		},
		{
			"bufferView":13,
			"componentType":5123,
			"count":216,
			"type":"SCALAR"
		},
		{
			"bufferView":14,
			"componentType":5126,
			"count":4,
			"max":[
				0.6619998216629028,
				0,
				1.279695749282837
			],
			"min":[
				-0.8060733675956726,
				0,
				-1.279695749282837
			],
			"type":"VEC3"
		},
		{
			"bufferView":15,
			"componentType":5126,
			"count":4,
			"type":"VEC2"
		},
		{
			"bufferView":16,
			"componentType":5126,
			"count":4,
			"type":"VEC3"
		},
		{
			"bufferView":17,
			"componentType":5123,
			"count":6,
			"type":"SCALAR"
		}
	],
	"bufferViews":[
		{
			"buffer":0,
			"byteLength":1560,
			"byteOffset":0,
			"target":34962
		},
		{
			"buffer":0,
			"byteLength":1040,
			"byteOffset":1560,
			"target":34962
		},
		{
			"buffer":0,
			"byteLength":1560,
			"byteOffset":2600,
			"target":34962
		},
		{
			"buffer":0,
			"byteLength":744,
			"byteOffset":4160,
			"target":34963
		},
		{
			"buffer":0,
			"byteLength":302041,
			"byteOffset":4904
		},
		{
			"buffer":0,
			"byteLength":402568,
			"byteOffset":306948
		},
		{
			"buffer":0,
			"byteLength":792,
			"byteOffset":709516,
			"target":34962
		},
		{
			"buffer":0,
			"byteLength":528,
			"byteOffset":710308,
			"target":34962
		},
		{
			"buffer":0,
			"byteLength":792,
			"byteOffset":710836,
			"target":34962
		},
		{
			"buffer":0,
			"byteLength":384,
			"byteOffset":711628,
			"target":34963
		},
		{
			"buffer":0,
			"byteLength":912,
			"byteOffset":712012,
			"target":34962
		},
		{
			"buffer":0,
			"byteLength":608,
			"byteOffset":712924,
			"target":34962
		},
		{
			"buffer":0,
			"byteLength":912,
			"byteOffset":713532,
			"target":34962
		},
		{
			"buffer":0,
			"byteLength":432,
			"byteOffset":714444,
			"target":34963
		},
		{
			"buffer":0,
			"byteLength":48,
			"byteOffset":714876,
			"target":34962
		},
		{
			"buffer":0,
			"byteLength":32,
			"byteOffset":714924,
			"target":34962
		},
		{
			"buffer":0,
			"byteLength":48,
			"byteOffset":714956,
			"target":34962
		},
		{
			"buffer":0,
			"byteLength":12,
			"byteOffset":715004,
			"target":34963
		}
	],
	"samplers":[
		{
			"magFilter":9729,
			"minFilter":9987
		}
	],
	"buffers":[
		{
			"byteLength":715016,
			"uri":"data:application/octet-stream;base64,"
		}
	]
}
