{
	"asset":{
		"generator":"Khronos glTF Blender I/O v3.5.30",
		"version":"2.0"
	},
	"scene":0,
	"scenes":[
		{
			"name":"Scene",
			"nodes":[
				0
			]
		}
	],
	"nodes":[
		{
			"mesh":0,
			"name":"\u66f2\u9762\u7403"
		}
	],
	"materials":[
		{
			"doubleSided":true,
			"name":"\u6750\u8d28",
			"pbrMetallicRoughness":{
				"baseColorFactor":[
					0.800000011920929,
					0.800000011920929,
					0.800000011920929,
					1
				],
				"metallicFactor":0,
				"roughnessFactor":0.5
			}
		}
	],
	"meshes":[
		{
			"name":"\u66f2\u9762\u7403",
			"primitives":[
				{
					"attributes":{
						"POSITION":0,
						"TEXCOORD_0":1,
						"NORMAL":2
					},
					"indices":3,
					"material":0
				}
			]
		}
	],
	"accessors":[
		{
			"bufferView":0,
			"componentType":5126,
			"count":660,
			"max":[
				0.9971464276313782,
				1,
				0.997146487236023
			],
			"min":[
				-0.9971466064453125,
				-1.0000001192092896,
				-0.9971464276313782
			],
			"type":"VEC3"
		},
		{
			"bufferView":1,
			"componentType":5126,
			"count":660,
			"type":"VEC2"
		},
		{
			"bufferView":2,
			"componentType":5126,
			"count":660,
			"type":"VEC3"
		},
		{
			"bufferView":3,
			"componentType":5123,
			"count":3648,
			"type":"SCALAR"
		}
	],
	"bufferViews":[
		{
			"buffer":0,
			"byteLength":7920,
			"byteOffset":0,
			"target":34962
		},
		{
			"buffer":0,
			"byteLength":5280,
			"byteOffset":7920,
			"target":34962
		},
		{
			"buffer":0,
			"byteLength":7920,
			"byteOffset":13200,
			"target":34962
		},
		{
			"buffer":0,
			"byteLength":7296,
			"byteOffset":21120,
			"target":34963
		}
	],
	"buffers":[
		{
			"byteLength":28416,
			"uri":"data:application/octet-stream;base64,"
		}
	]
}
