{
	"asset":{
		"generator":"Khronos glTF Blender I/O v3.5.30",
		"version":"2.0"
	},
	"extensionsUsed":[
		"KHR_materials_emissive_strength"
	],
	"scene":0,
	"scenes":[
		{
			"name":"Scene",
			"nodes":[
				0,
				1,
				2
			]
		}
	],
	"nodes":[
		{
			"mesh":0,
			"name":"\u5e73\u9762"
		},
		{
			"mesh":1,
			"name":"\u5e73\u9762.001",
			"rotation":[
				0,
				0,
				0.45142465829849243,
				0.8923092484474182
			],
			"translation":[
				0,
				0,
				1.9301881790161133
			]
		},
		{
			"mesh":2,
			"name":"\u5e73\u9762.002",
			"rotation":[
				0,
				0,
				-0.42535480856895447,
				0.9050267934799194
			],
			"translation":[
				0,
				0,
				-1.6275831460952759
			]
		}
	],
	"materials":[
		{
			"doubleSided":true,
			"emissiveFactor":[
				0.11474072933197021,
				0,
				1
			],
			"extensions":{
				"KHR_materials_emissive_strength":{
					"emissiveStrength":7.59999942779541
				}
			},
			"name":"Material.001",
			"pbrMetallicRoughness":{
				"baseColorTexture":{
					"index":0
				},
				"metallicFactor":0,
				"roughnessFactor":0.5
			}
		},
		{
			"doubleSided":true,
			"emissiveFactor":[
				0.11474072933197021,
				0,
				1
			],
			"extensions":{
				"KHR_materials_emissive_strength":{
					"emissiveStrength":7.59999942779541
				}
			},
			"name":"Material.002",
			"pbrMetallicRoughness":{
				"baseColorTexture":{
					"index":1
				},
				"metallicFactor":0,
				"roughnessFactor":0.5
			}
		},
		{
			"doubleSided":true,
			"emissiveFactor":[
				0.11474072933197021,
				0,
				1
			],
			"extensions":{
				"KHR_materials_emissive_strength":{
					"emissiveStrength":7.59999942779541
				}
			},
			"name":"Material.003",
			"pbrMetallicRoughness":{
				"baseColorTexture":{
					"index":2
				},
				"metallicFactor":0,
				"roughnessFactor":0.5
			}
		}
	],
	"meshes":[
		{
			"name":"\u5e73\u9762",
			"primitives":[
				{
					"attributes":{
						"POSITION":0,
						"TEXCOORD_0":1,
						"NORMAL":2
					},
					"indices":3,
					"material":0
				}
			]
		},
		{
			"name":"\u5e73\u9762.001",
			"primitives":[
				{
					"attributes":{
						"POSITION":4,
						"TEXCOORD_0":5,
						"NORMAL":6
					},
					"indices":3,
					"material":1
				}
			]
		},
		{
			"name":"\u5e73\u9762.002",
			"primitives":[
				{
					"attributes":{
						"POSITION":7,
						"TEXCOORD_0":8,
						"NORMAL":9
					},
					"indices":3,
					"material":2
				}
			]
		}
	],
	"textures":[
		{
			"sampler":0,
			"source":0
		},
		{
			"sampler":0,
			"source":0
		},
		{
			"sampler":0,
			"source":0
		}
	],
	"images":[
		{
			"bufferView":4,
			"mimeType":"image/png",
			"name":"\u5e73\u9762 Base Color"
		}
	],
	"accessors":[
		{
			"bufferView":0,
			"componentType":5126,
			"count":4,
			"max":[
				1,
				0,
				1
			],
			"min":[
				-1,
				0,
				-1
			],
			"type":"VEC3"
		},
		{
			"bufferView":1,
			"componentType":5126,
			"count":4,
			"type":"VEC2"
		},
		{
			"bufferView":2,
			"componentType":5126,
			"count":4,
			"type":"VEC3"
		},
		{
			"bufferView":3,
			"componentType":5123,
			"count":6,
			"type":"SCALAR"
		},
		{
			"bufferView":5,
			"componentType":5126,
			"count":4,
			"max":[
				1,
				0,
				1
			],
			"min":[
				-1,
				0,
				-1
			],
			"type":"VEC3"
		},
		{
			"bufferView":6,
			"componentType":5126,
			"count":4,
			"type":"VEC2"
		},
		{
			"bufferView":7,
			"componentType":5126,
			"count":4,
			"type":"VEC3"
		},
		{
			"bufferView":8,
			"componentType":5126,
			"count":4,
			"max":[
				1,
				0,
				1
			],
			"min":[
				-1,
				0,
				-1
			],
			"type":"VEC3"
		},
		{
			"bufferView":9,
			"componentType":5126,
			"count":4,
			"type":"VEC2"
		},
		{
			"bufferView":10,
			"componentType":5126,
			"count":4,
			"type":"VEC3"
		}
	],
	"bufferViews":[
		{
			"buffer":0,
			"byteLength":48,
			"byteOffset":0,
			"target":34962
		},
		{
			"buffer":0,
			"byteLength":32,
			"byteOffset":48,
			"target":34962
		},
		{
			"buffer":0,
			"byteLength":48,
			"byteOffset":80,
			"target":34962
		},
		{
			"buffer":0,
			"byteLength":12,
			"byteOffset":128,
			"target":34963
		},
		{
			"buffer":0,
			"byteLength":99705,
			"byteOffset":140
		},
		{
			"buffer":0,
			"byteLength":48,
			"byteOffset":99848,
			"target":34962
		},
		{
			"buffer":0,
			"byteLength":32,
			"byteOffset":99896,
			"target":34962
		},
		{
			"buffer":0,
			"byteLength":48,
			"byteOffset":99928,
			"target":34962
		},
		{
			"buffer":0,
			"byteLength":48,
			"byteOffset":99976,
			"target":34962
		},
		{
			"buffer":0,
			"byteLength":32,
			"byteOffset":100024,
			"target":34962
		},
		{
			"buffer":0,
			"byteLength":48,
			"byteOffset":100056,
			"target":34962
		}
	],
	"samplers":[
		{
			"magFilter":9729,
			"minFilter":9987
		}
	],
	"buffers":[
		{
			"byteLength":100104,
			"uri":"data:application/octet-stream;base64,"
		}
	]
}
